<?xml version="1.0" encoding="UTF-8"?>
<svg version="1.1" xmlns="http://www.w3.org/2000/svg" width="231" height="61">
<path d="M0 0 C2.64 0 5.28 0 8 0 C8 4.29 8 8.58 8 13 C11.96 13 15.92 13 20 13 C20 8.71 20 4.42 20 0 C22.33294775 -0.04241723 24.66702567 -0.04092937 27 0 C28.87066038 1.87066038 28.13051837 5.0256481 28.1328125 7.51953125 C28.13424759 8.50200081 28.13424759 8.50200081 28.13571167 9.50431824 C28.13639355 10.8939117 28.13453873 12.28350832 28.13037109 13.6730957 C28.12504844 15.79320524 28.13030242 17.91310044 28.13671875 20.03320312 C28.13605747 21.38281297 28.13477527 22.73242267 28.1328125 24.08203125 C28.13168457 25.31155518 28.13055664 26.5410791 28.12939453 27.80786133 C28.02366972 30.41607257 27.77559264 32.52726896 27 35 C24.69 35 22.38 35 20 35 C20 30.38 20 25.76 20 21 C16.04 21 12.08 21 8 21 C8 25.62 8 30.24 8 35 C5.36 35 2.72 35 0 35 C0 23.45 0 11.9 0 0 Z " fill="#1693C5" transform="translate(94,11)"/>
<path d="M0 0 C2.625 0.125 2.625 0.125 5.625 1.125 C6.285 0.795 6.945 0.465 7.625 0.125 C14.58824393 -0.67406078 14.58824393 -0.67406078 17.2265625 1.359375 C20.91119177 5.711978 21.92686757 9.35448839 21.84375 14.99609375 C21.39887339 19.3256965 19.87226685 22.83472395 16.8125 26 C14.06042454 27.41535309 11.70138531 27.86317997 8.625 28.125 C7.635 27.795 6.645 27.465 5.625 27.125 C5.295 30.425 4.965 33.725 4.625 37.125 C2.29205225 37.16741723 -0.04202567 37.16592937 -2.375 37.125 C-4.13572584 35.36427416 -3.50334784 33.0460371 -3.51394653 30.7010498 C-3.5119223 29.94376587 -3.50989807 29.18648193 -3.5078125 28.40625 C-3.50876923 27.63317505 -3.50972595 26.8601001 -3.51071167 26.06359863 C-3.51139341 24.42602456 -3.50953957 22.78844781 -3.50537109 21.15087891 C-3.50002271 18.63568079 -3.50531626 16.12066127 -3.51171875 13.60546875 C-3.51105797 12.01822877 -3.5097768 10.4309889 -3.5078125 8.84375 C-3.50983673 8.08646606 -3.51186096 7.32918213 -3.51394653 6.5489502 C-3.48517613 0.18343032 -3.48517613 0.18343032 0 0 Z M4.625 8.125 C4.26001966 11.02108399 4.26001966 11.02108399 4.4375 14.25 C4.46457031 15.34570312 4.49164063 16.44140625 4.51953125 17.5703125 C4.55433594 18.41335937 4.58914062 19.25640625 4.625 20.125 C7.595 20.62 7.595 20.62 10.625 21.125 C13.08122327 18.56643409 13.61507552 17.21762844 14 13.625 C13.61440674 10.02612956 13.25639589 8.56147768 10.625 6.125 C7.44009993 5.8476499 7.44009993 5.8476499 4.625 8.125 Z " fill="#36AAD5" transform="translate(186.375,18.875)"/>
<path d="M0 0 C2.75569447 2.18159145 4.43588747 3.87177494 6 7 C6.13559318 10.00474497 6.04299016 12.99068847 6 16 C1.05 16.33 -3.9 16.66 -9 17 C-8.34 17.99 -7.68 18.98 -7 20 C-4.56306689 20.36416047 -4.56306689 20.36416047 -1.875 20.1875 C-0.96492188 20.16042969 -0.05484375 20.13335937 0.8828125 20.10546875 C1.58148438 20.07066406 2.28015625 20.03585938 3 20 C3.66 21.65 4.32 23.3 5 25 C0.40202227 27.39478007 -2.90477043 28.58862532 -8.07421875 27.625 C-11.65927681 26.46149231 -13.53547469 24.81660036 -16 22 C-18.13766563 17.30623206 -18.3631554 13.14220257 -17 8.1875 C-15.75985094 5.1033032 -14.82951559 3.83357474 -12.375 1.4375 C-8.10386241 -0.38168823 -4.57092559 -1.00173139 0 0 Z M-7 6 C-8.77409808 7.92022703 -8.77409808 7.92022703 -10 10 C-7.03 10 -4.06 10 -1 10 C-1.66 8.68 -2.32 7.36 -3 6 C-4.32 6 -5.64 6 -7 6 Z " fill="#1897CA" transform="translate(144,19)"/>
<path d="M0 0 C6.27 0 12.54 0 19 0 C19 6.18120431 17.99566673 8.20934727 14.5 12.8125 C11.52873718 16.18898025 11.52873718 16.18898025 10 20 C12.97 20 15.94 20 19 20 C19 22.31 19 24.62 19 27 C12.4 27 5.8 27 -1 27 C-2 22 -2 22 -1.19555664 20.1472168 C-0.77137451 19.58687744 -0.34719238 19.02653809 0.08984375 18.44921875 C0.54423828 17.83369141 0.99863281 17.21816406 1.46679688 16.58398438 C1.95212891 15.95814453 2.43746094 15.33230469 2.9375 14.6875 C3.41896484 14.04232422 3.90042969 13.39714844 4.39648438 12.73242188 C5.58424292 11.14482382 6.79038612 9.57100994 8 8 C5.36 7.67 2.72 7.34 0 7 C-1.125 2.25 -1.125 2.25 0 0 Z " fill="#43B0D8" transform="translate(212,19)"/>
<path d="M0 0 C0.495 1.98 0.495 1.98 1 4 C0.46890625 4.3403125 -0.0621875 4.680625 -0.609375 5.03125 C-5.78985482 8.58573981 -9.34335923 11.80830511 -11 18 C-11.83545168 24.45734524 -11.73421459 30.50559938 -8.421875 36.2421875 C-5.79853828 39.48532356 -2.48958796 41.76395334 1 44 C0.67 45.32 0.34 46.64 0 48 C-8.85966999 42.73052308 -8.85966999 42.73052308 -11.1875 38.1875 C-12.19954224 36.31645608 -12.19954224 36.31645608 -14 35 C-18.67317611 34.09102982 -23.24795494 33.95498739 -28 34 C-28 33.01 -28 32.02 -28 31 C-23.71 31 -19.42 31 -15 31 C-15.495 28.525 -15.495 28.525 -16 26 C-22.27 26 -28.54 26 -35 26 C-35 24.68 -35 23.36 -35 22 C-28.73 22 -22.46 22 -16 22 C-16 21.01 -16 20.02 -16 19 C-19.63 18.67 -23.26 18.34 -27 18 C-27.33 16.68 -27.66 15.36 -28 14 C-27.05898438 14.020625 -26.11796875 14.04125 -25.1484375 14.0625 C-18.10411739 14.22731062 -18.10411739 14.22731062 -12.015625 11.328125 C-11.08806666 9.9419985 -10.2069593 8.52365428 -9.375 7.078125 C-7.07599089 3.60348623 -3.61875552 1.910409 0 0 Z " fill="#709CC8" transform="translate(35,4)"/>
<path d="M0 0 C5.86686356 2.22940815 11.39694466 4.65905289 14.25390625 10.61328125 C15.83561175 13.32413741 15.83561175 13.32413741 19.13671875 13.70703125 C20.30847656 13.74183594 21.48023438 13.77664062 22.6875 13.8125 C23.86699219 13.86019531 25.04648438 13.90789063 26.26171875 13.95703125 C27.61716797 13.97830078 27.61716797 13.97830078 29 14 C29 15.32 29 16.64 29 18 C27.37509046 18.02698189 25.75005367 18.04638757 24.125 18.0625 C22.76761719 18.07990234 22.76761719 18.07990234 21.3828125 18.09765625 C19 18 19 18 17 17 C17.33 18.65 17.66 20.3 18 22 C24.27 22 30.54 22 37 22 C37 23.32 37 24.64 37 26 C30.73 26 24.46 26 18 26 C17.67 27.65 17.34 29.3 17 31 C21.29 31 25.58 31 30 31 C30 31.99 30 32.98 30 34 C29.05898437 33.979375 28.11796875 33.95875 27.1484375 33.9375 C20.10411739 33.77268938 20.10411739 33.77268938 14.015625 36.671875 C13.08730151 38.05914493 12.20373312 39.47740493 11.3671875 40.921875 C9.09950762 44.36874842 5.68937451 46.27164437 2 48 C1.34 48 0.68 48 0 48 C0 46.68 0 45.36 0 44 C1.828125 42.578125 1.828125 42.578125 4.25 41.25 C9.04853527 38.21218712 11.59470338 35.56534688 13 30 C13.82207656 23.57914943 13.75462071 17.46718976 10.48828125 11.7421875 C8.07235696 8.91409765 5.06523053 7.1970619 1.828125 5.421875 C1.22484375 4.95265625 0.6215625 4.4834375 0 4 C0 2.68 0 1.36 0 0 Z " fill="#7BAAD2" transform="translate(51,4)"/>
<path d="M0 0 C3 0.125 3 0.125 4 1.125 C4.08790975 3.41651417 4.10694038 5.71072524 4.09765625 8.00390625 C4.0962413 8.6905687 4.09482635 9.37723114 4.09336853 10.08470154 C4.08775479 12.28567801 4.07520007 14.48655409 4.0625 16.6875 C4.05748676 18.17643083 4.05292355 19.66536324 4.04882812 21.15429688 C4.03778093 24.81123075 4.02050713 28.46810558 4 32.125 C4.66 32.125 5.32 32.125 6 32.125 C6.33 34.105 6.66 36.085 7 38.125 C1.65924276 39.33880846 1.65924276 39.33880846 -1.3125 38.375 C-3 37.125 -3 37.125 -4 34.125 C-4.0965181 31.62317803 -4.14001359 29.15008211 -4.1328125 26.6484375 C-4.13376923 25.92258453 -4.13472595 25.19673157 -4.13571167 24.44888306 C-4.13639134 22.91741855 -4.13455189 21.38595114 -4.13037109 19.85449219 C-4.12500431 17.50188799 -4.13033116 15.14947338 -4.13671875 12.796875 C-4.13605823 11.30989541 -4.13477762 9.82291594 -4.1328125 8.3359375 C-4.13483673 7.62867523 -4.13686096 6.92141296 -4.13894653 6.19271851 C-4.10978706 0.17124113 -4.10978706 0.17124113 0 0 Z " fill="#0C95CB" transform="translate(173,7.875)"/>
<path d="M0 0 C1.99954746 -0.04254356 4.00041636 -0.04080783 6 0 C7.88631543 1.88631543 7.24265292 5.14200693 7.31640625 7.66015625 C7.33718735 8.32462265 7.35796844 8.98908905 7.37937927 9.6736908 C7.44493658 11.80318543 7.50378785 13.93280668 7.5625 16.0625 C7.60567939 17.50326847 7.64929349 18.94402399 7.69335938 20.38476562 C7.80062393 23.9230404 7.90187371 27.46145869 8 31 C8.66 31.33 9.32 31.66 10 32 C10.04254356 33.99954746 10.04080783 36.00041636 10 38 C9.505 38.495 9.505 38.495 9 39 C5.5625 38.75 5.5625 38.75 2 38 C-0.49336211 34.25995683 -0.25481228 31.37438391 -0.1953125 27.05078125 C-0.1924826 26.27816452 -0.18965271 25.50554779 -0.18673706 24.70951843 C-0.17554878 22.24368757 -0.15044703 19.77822094 -0.125 17.3125 C-0.11496843 15.63997921 -0.10584289 13.96745272 -0.09765625 12.29492188 C-0.07561392 8.19647441 -0.04109363 4.09829894 0 0 Z " fill="#40A5CB" transform="translate(155,8)"/>
<path d="M0 0 C1.32 0 2.64 0 4 0 C4.33 2.64 4.66 5.28 5 8 C6.98 8 8.96 8 11 8 C11.33 5.36 11.66 2.72 12 0 C13.65 0.33 15.3 0.66 17 1 C17 8.26 17 15.52 17 23 C15.35 23 13.7 23 12 23 C12 20.03 12 17.06 12 14 C9.36 14 6.72 14 4 14 C4 16.97 4 19.94 4 23 C2.35 23 0.7 23 -1 23 C-1.02887512 19.35418313 -1.04675585 15.70839537 -1.0625 12.0625 C-1.07087891 11.02158203 -1.07925781 9.98066406 -1.08789062 8.90820312 C-1.09272461 7.42416992 -1.09272461 7.42416992 -1.09765625 5.91015625 C-1.10289307 4.99371338 -1.10812988 4.07727051 -1.11352539 3.13305664 C-1 1 -1 1 0 0 Z " fill="#42ACD1" transform="translate(36,16)"/>
<path d="M0 0 C17 0 17 0 19 1 C18.67 1.66 18.34 2.32 18 3 C17.34 2.67 16.68 2.34 16 2 C16.33 2.99 16.66 3.98 17 5 C15.9275 4.979375 14.855 4.95875 13.75 4.9375 C10.80196101 4.98663398 8.76595853 5.22283909 6 6 C6.02320313 6.59167969 6.04640625 7.18335938 6.0703125 7.79296875 C6.17411464 12.33801959 6.13708357 15.85940059 4 20 C4.66 20 5.32 20 6 20 C6 24.62 6 29.24 6 34 C4.02 34 2.04 34 0 34 C0 22.78 0 11.56 0 0 Z " fill="#1A92C1" transform="translate(184,21)"/>
<path d="M0 0 C2.64 0 5.28 0 8 0 C8 4.29 8 8.58 8 13 C11.96 13 15.92 13 20 13 C20 8.71 20 4.42 20 0 C22.33294775 -0.04241723 24.66702567 -0.04092937 27 0 C28.87066038 1.87066038 28.13051837 5.0256481 28.1328125 7.51953125 C28.13424759 8.50200081 28.13424759 8.50200081 28.13571167 9.50431824 C28.13639355 10.8939117 28.13453873 12.28350832 28.13037109 13.6730957 C28.12504844 15.79320524 28.13030242 17.91310044 28.13671875 20.03320312 C28.13605747 21.38281297 28.13477527 22.73242267 28.1328125 24.08203125 C28.13168457 25.31155518 28.13055664 26.5410791 28.12939453 27.80786133 C28.02366972 30.41607257 27.77559264 32.52726896 27 35 C24.69 35 22.38 35 20 35 C20 30.38 20 25.76 20 21 C16.04 21 12.08 21 8 21 C8 25.62 8 30.24 8 35 C5.36 35 2.72 35 0 35 C0 23.45 0 11.9 0 0 Z M1 1 C1 11.89 1 22.78 1 34 C2.98 34 4.96 34 7 34 C7 29.38 7 24.76 7 20 C11.62 20 16.24 20 21 20 C21 24.62 21 29.24 21 34 C22.65 34 24.3 34 26 34 C26 23.44 26 12.88 26 2 C24.35 2 22.7 2 21 2 C21 5.96 21 9.92 21 14 C16.38 14 11.76 14 7 14 C7 9.71 7 5.42 7 1 C5.02 1 3.04 1 1 1 Z " fill="#8DD0E7" transform="translate(94,11)"/>
<path d="M0 0 C0.79560764 2.91499943 1.25322499 5.74561419 1.5625 8.75 C1.64628906 9.54921875 1.73007813 10.3484375 1.81640625 11.171875 C1.87699219 11.77515625 1.93757812 12.3784375 2 13 C2.66 13 3.32 13 4 13 C4.33 11.68 4.66 10.36 5 9 C10.28 9 15.56 9 21 9 C21 6.36 21 3.72 21 1 C21.33 1 21.66 1 22 1 C22 3.97 22 6.94 22 10 C17.05 10.33 12.1 10.66 7 11 C7.99 12.485 7.99 12.485 9 14 C11.43693311 14.36416047 11.43693311 14.36416047 14.125 14.1875 C15.49011719 14.14689453 15.49011719 14.14689453 16.8828125 14.10546875 C17.58148438 14.07066406 18.28015625 14.03585938 19 14 C19.66 15.65 20.32 17.3 21 19 C16.40202227 21.39478007 13.09522957 22.58862532 7.92578125 21.625 C4.34072319 20.46149231 2.46452531 18.81660036 0 16 C-2.43801861 10.23937195 -2.20137791 5.74804232 0 0 Z " fill="#38A7D4" transform="translate(128,25)"/>
<path d="M0 0 C0.495 1.98 0.495 1.98 1 4 C0.46890625 4.3403125 -0.0621875 4.680625 -0.609375 5.03125 C-5.81901104 8.6057448 -9.19301901 11.84790864 -11 18 C-11.56650289 21.66532213 -11.86378919 25.29506596 -12 29 C-12.33 29 -12.66 29 -13 29 C-13.33 26.36 -13.66 23.72 -14 21 C-14.33 21.66 -14.66 22.32 -15 23 C-21.6 23 -28.2 23 -35 23 C-35 22.67 -35 22.34 -35 22 C-28.73 22 -22.46 22 -16 22 C-16 21.01 -16 20.02 -16 19 C-19.63 18.67 -23.26 18.34 -27 18 C-27.33 16.68 -27.66 15.36 -28 14 C-27.05898438 14.020625 -26.11796875 14.04125 -25.1484375 14.0625 C-18.10411739 14.22731062 -18.10411739 14.22731062 -12.015625 11.328125 C-11.08806666 9.9419985 -10.2069593 8.52365428 -9.375 7.078125 C-7.07599089 3.60348623 -3.61875552 1.910409 0 0 Z " fill="#719DC8" transform="translate(35,4)"/>
<path d="M0 0 C1.98 0 3.96 0 6 0 C6 4.29 6 8.58 6 13 C5.67 12.01 5.34 11.02 5 10 C4.01 10 3.02 10 2 10 C2 16.93 2 23.86 2 31 C2.66 31 3.32 31 4 31 C4 27.04 4 23.08 4 19 C4.66 18.67 5.32 18.34 6 18 C6 22.95 6 27.9 6 33 C4.02 33 2.04 33 0 33 C0 22.11 0 11.22 0 0 Z " fill="#1292C3" transform="translate(95,12)"/>
<path d="M0 0 C2 0.8125 2 0.8125 3.25 2.875 C3.4975 3.514375 3.745 4.15375 4 4.8125 C2.3603125 5.18375 2.3603125 5.18375 0.6875 5.5625 C-3.05908409 6.83252851 -4.10595266 7.47006352 -6 10.8125 C-4.88625 10.77125 -3.7725 10.73 -2.625 10.6875 C1 10.8125 1 10.8125 3 12.8125 C0.36 13.1425 -2.28 13.4725 -5 13.8125 C-5.66 15.4625 -6.32 17.1125 -7 18.8125 C-7.99 18.4825 -8.98 18.1525 -10 17.8125 C-11.63837638 7.65013838 -11.63837638 7.65013838 -9 3.8125 C-6.375 3 -6.375 3 -4 2.8125 C-4 2.1525 -4 1.4925 -4 0.8125 C-2 -0.1875 -2 -0.1875 0 0 Z " fill="#0894CB" transform="translate(139,20.1875)"/>
<path d="M0 0 C0.99 0.33 1.98 0.66 3 1 C4.18983582 6.85842891 4.37237212 12.73216921 4.625 18.6875 C4.6765625 19.73228516 4.728125 20.77707031 4.78125 21.85351562 C4.82507813 22.85447266 4.86890625 23.85542969 4.9140625 24.88671875 C4.9548291 25.79639404 4.9955957 26.70606934 5.03759766 27.64331055 C5 30 5 30 4 33 C2.68 32.67 1.36 32.34 0 32 C0 21.44 0 10.88 0 0 Z " fill="#0396D0" transform="translate(157,11)"/>
<path d="M0 0 C1.32 0 2.64 0 4 0 C3.85941524 2.45873768 3.71277001 4.91685175 3.5625 7.375 C3.50352539 8.42300781 3.50352539 8.42300781 3.44335938 9.4921875 C3.11328125 14.7734375 3.11328125 14.7734375 2 17 C2.66 17 3.32 17 4 17 C3.67 20.96 3.34 24.92 3 29 C1.68 29 0.36 29 -1 29 C-1.02465881 25.03069011 -1.04284023 21.06140966 -1.05493164 17.09204102 C-1.05997057 15.74079614 -1.06680177 14.38955674 -1.07543945 13.03833008 C-1.08752419 11.09979566 -1.09269828 9.161222 -1.09765625 7.22265625 C-1.10289307 6.05484619 -1.10812988 4.88703613 -1.11352539 3.68383789 C-1 1 -1 1 0 0 Z " fill="#0296D2" transform="translate(186,24)"/>
<path d="M0 0 C0.99 0 1.98 0 3 0 C3.66 1.32 4.32 2.64 5 4 C9.62 4 14.24 4 19 4 C19.33 4.99 19.66 5.98 20 7 C17.94077598 9.05922402 13.78291876 8.41427579 10.9375 8.5625 C9.79958008 8.62727539 9.79958008 8.62727539 8.63867188 8.69335938 C6.75934562 8.79973633 4.87969756 8.90039934 3 9 C2.67 12.96 2.34 16.92 2 21 C1.34 21 0.68 21 0 21 C0 14.07 0 7.14 0 0 Z " fill="#0496D1" transform="translate(97,22)"/>
<path d="M0 0 C0.66 0.66 1.32 1.32 2 2 C2.99 2 3.98 2 5 2 C8 2 11 2 14 2 C14 3.98 14 5.96 14 8 C11.93757383 8.02717692 9.87504297 8.0464758 7.8125 8.0625 C6.66394531 8.07410156 5.51539063 8.08570313 4.33203125 8.09765625 C1.40699414 8.01192832 -1.16316291 7.67849023 -4 7 C-4 6.01 -4 5.02 -4 4 C-3.34 4 -2.68 4 -2 4 C-1.34 2.68 -0.68 1.36 0 0 Z " fill="#33ACD9" transform="translate(217,37)"/>
<path d="M0 0 C0 0.99 0 1.98 0 3 C0.66 3.33 1.32 3.66 2 4 C2 7.96 2 11.92 2 16 C1.67 16 1.34 16 1 16 C0.67 13.36 0.34 10.72 0 8 C-0.33 8.66 -0.66 9.32 -1 10 C-7.6 10 -14.2 10 -21 10 C-21 9.67 -21 9.34 -21 9 C-14.73 9 -8.46 9 -2 9 C-2 8.01 -2 7.02 -2 6 C-5.63 5.67 -9.26 5.34 -13 5 C-13.33 3.68 -13.66 2.36 -14 1 C-9.38 0.67 -4.76 0.34 0 0 Z " fill="#ACCDE8" transform="translate(21,17)"/>
<path d="M0 0 C3 0.125 3 0.125 4 1.125 C4.08790975 3.41651417 4.10694038 5.71072524 4.09765625 8.00390625 C4.0962413 8.6905687 4.09482635 9.37723114 4.09336853 10.08470154 C4.08775479 12.28567801 4.07520007 14.48655409 4.0625 16.6875 C4.05748676 18.17643083 4.05292355 19.66536324 4.04882812 21.15429688 C4.03778093 24.81123075 4.02050713 28.46810558 4 32.125 C3.67 32.125 3.34 32.125 3 32.125 C2.67 22.555 2.34 12.985 2 3.125 C0.35 2.795 -1.3 2.465 -3 2.125 C-3 12.685 -3 23.245 -3 34.125 C-3.33 34.125 -3.66 34.125 -4 34.125 C-4.02465288 29.44360746 -4.04283739 24.76225241 -4.05493164 20.08081055 C-4.05997157 18.48705386 -4.0668035 16.89330181 -4.07543945 15.29956055 C-4.08751999 13.01349747 -4.09323155 10.72749533 -4.09765625 8.44140625 C-4.10281754 7.72473282 -4.10797882 7.00805939 -4.11329651 6.26966858 C-4.11349263 4.55436328 -4.06192007 2.83918734 -4 1.125 C-3 0.125 -3 0.125 0 0 Z " fill="#9DD6E9" transform="translate(173,7.875)"/>
<path d="M0 0 C2.625 0.125 2.625 0.125 5.625 1.125 C6.285 0.795 6.945 0.465 7.625 0.125 C12.94407895 -0.29714912 12.94407895 -0.29714912 15.625 0.125 C17.625 2.125 17.625 2.125 18.625 4.125 C17.635 4.62 17.635 4.62 16.625 5.125 C16.625 4.465 16.625 3.805 16.625 3.125 C15.58859375 3.13660156 14.5521875 3.14820313 13.484375 3.16015625 C12.11458514 3.16953837 10.74479332 3.17863812 9.375 3.1875 C8.35212891 3.20006836 8.35212891 3.20006836 7.30859375 3.21289062 C3.8223503 3.22981414 1.03839881 2.9783497 -2.375 2.125 C-2.375 13.345 -2.375 24.565 -2.375 36.125 C-2.705 36.125 -3.035 36.125 -3.375 36.125 C-3.39965098 31.15877651 -3.41783649 26.19258834 -3.42993164 21.22631836 C-3.4349719 19.53555684 -3.44180405 17.84479971 -3.45043945 16.15405273 C-3.46251857 13.72899293 -3.46823123 11.30399056 -3.47265625 8.87890625 C-3.47781754 8.11848526 -3.48297882 7.35806427 -3.48829651 6.57460022 C-3.48849238 4.7576743 -3.43697277 2.94086873 -3.375 1.125 C-2.375 0.125 -2.375 0.125 0 0 Z " fill="#94D2EC" transform="translate(186.375,18.875)"/>
<path d="M0 0 C1.0362804 1.55442059 2.07066081 3.1103435 3.078125 4.68359375 C5.91888668 8.93526707 8.57800955 11.42907532 13 14 C12.67 15.32 12.34 16.64 12 18 C5.88761199 14.36452739 1.76334357 11.06990899 -2 5 C-1.34 4.67 -0.68 4.34 0 4 C0 2.68 0 1.36 0 0 Z " fill="#7EACD4" transform="translate(23,34)"/>
<path d="M0 0 C2.5625 1.5 2.5625 1.5 4 3 C3 5 3 5 1 7 C0.67 8.32 0.34 9.64 0 11 C-3.3 11 -6.6 11 -10 11 C-10 10.67 -10 10.34 -10 10 C-7.03 10 -4.06 10 -1 10 C-1.66 8.68 -2.32 7.36 -3 6 C-3 4.68 -3 3.36 -3 2 C-4.98 2 -6.96 2 -9 2 C-9 2.66 -9 3.32 -9 4 C-10.98 4.66 -12.96 5.32 -15 6 C-14.04226816 3.6056704 -13.42696971 2.26453558 -11.203125 0.88671875 C-7.5256359 -0.59340541 -3.89886076 -0.49361723 0 0 Z " fill="#5EBCDE" transform="translate(144,19)"/>
<path d="M0 0 C2.475 0.495 2.475 0.495 5 1 C5 8.26 5 15.52 5 23 C3.35 23 1.7 23 0 23 C0 20.36 0 17.72 0 15 C0.33 15 0.66 15 1 15 C1 16.98 1 18.96 1 21 C1.66 21 2.32 21 3 21 C3 15.06 3 9.12 3 3 C2.34 2.67 1.68 2.34 1 2 C0.67 1.34 0.34 0.68 0 0 Z " fill="#65B8D7" transform="translate(48,16)"/>
<path d="M0 0 C0 2.83967231 -0.40267181 5.23735711 -1 8 C-1.66 8 -2.32 8 -3 8 C-3 8.99 -3 9.98 -3 11 C2.94 11.33 8.88 11.66 15 12 C15 12.33 15 12.66 15 13 C8.4 13 1.8 13 -5 13 C-6 8 -6 8 -4.78515625 5.76171875 C-4.21667969 5.07722656 -3.64820313 4.39273438 -3.0625 3.6875 C-2.21365234 2.64142578 -2.21365234 2.64142578 -1.34765625 1.57421875 C-0.90292969 1.05472656 -0.45820313 0.53523438 0 0 Z " fill="#66BEDD" transform="translate(216,33)"/>
<path d="M0 0 C-0.35119173 2.83417891 -0.78491224 3.81648089 -2.99609375 5.703125 C-3.80175781 6.21359375 -4.60742188 6.7240625 -5.4375 7.25 C-6.24058594 7.77078125 -7.04367188 8.2915625 -7.87109375 8.828125 C-10 10 -10 10 -12 10 C-12 8.68 -12 7.36 -12 6 C-10.13671875 4.296875 -10.13671875 4.296875 -7.6875 2.75 C-6.88699219 2.22921875 -6.08648437 1.7084375 -5.26171875 1.171875 C-3 0 -3 0 0 0 Z " fill="#7DA6CE" transform="translate(63,42)"/>
<path d="M0 0 C2 0.8125 2 0.8125 3.25 2.875 C3.4975 3.514375 3.745 4.15375 4 4.8125 C0.01939223 5.98326699 -3.91621717 7.06999403 -8 7.8125 C-8 6.8225 -8 5.8325 -8 4.8125 C-7.34 4.8125 -6.68 4.8125 -6 4.8125 C-6 4.1525 -6 3.4925 -6 2.8125 C-5.34 2.8125 -4.68 2.8125 -4 2.8125 C-4 2.1525 -4 1.4925 -4 0.8125 C-2 -0.1875 -2 -0.1875 0 0 Z " fill="#219ED1" transform="translate(139,20.1875)"/>
<path d="M0 0 C0.66 0.99 1.32 1.98 2 3 C2.66 3 3.32 3 4 3 C4 5.97 4 8.94 4 12 C2.02 12.33 0.04 12.66 -2 13 C-1.34 8.71 -0.68 4.42 0 0 Z " fill="#0596CE" transform="translate(201,29)"/>
<path d="M0 0 C0.33 1.32 0.66 2.64 1 4 C-3.455 6.97 -3.455 6.97 -8 10 C-8.33 8.68 -8.66 7.36 -9 6 C-6.03 4.02 -3.06 2.04 0 0 Z " fill="#82A7C8" transform="translate(35,4)"/>
<path d="M0 0 C1.32 0 2.64 0 4 0 C4 3.63 4 7.26 4 11 C3.01 11 2.02 11 1 11 C-0.28317892 7.15046324 -0.06643637 4.05261865 0 0 Z " fill="#0595D0" transform="translate(115,13)"/>
<path d="M0 0 C0.66 0 1.32 0 2 0 C2.83288874 6.25307239 3.03863773 11.76817361 2 18 C1.34 18 0.68 18 0 18 C0 12.06 0 6.12 0 0 Z " fill="#0496CC" transform="translate(37,19)"/>
<path d="M0 0 C2.97 0 5.94 0 9 0 C9 1.32 9 2.64 9 4 C4.71 4 0.42 4 -4 4 C-4 3.67 -4 3.34 -4 3 C-2.35 2.67 -0.7 2.34 1 2 C0.67 1.34 0.34 0.68 0 0 Z " fill="#0E93C6" transform="translate(222,41)"/>
<path d="M0 0 C0.33 0 0.66 0 1 0 C1 4.29 1 8.58 1 13 C0.01 13 -0.98 13 -2 13 C-2.05391993 11.20866022 -2.09275571 9.41686101 -2.125 7.625 C-2.14820312 6.62726562 -2.17140625 5.62953125 -2.1953125 4.6015625 C-2 2 -2 2 0 0 Z " fill="#0297D0" transform="translate(118,31)"/>
<path d="M0 0 C0.66 0 1.32 0 2 0 C2.33 1.98 2.66 3.96 3 6 C-2.41538462 7.23076923 -2.41538462 7.23076923 -5.375 6.0625 C-5.91125 5.711875 -6.4475 5.36125 -7 5 C-6.67 4.34 -6.34 3.68 -6 3 C-5.01 3.33 -4.02 3.66 -3 4 C-3 3.34 -3 2.68 -3 2 C-2.01 1.67 -1.02 1.34 0 1 C0 0.67 0 0.34 0 0 Z " fill="#65BFDC" transform="translate(177,40)"/>
<path d="M0 0 C0.66 0.33 1.32 0.66 2 1 C2 2.32 2 3.64 2 5 C0.35 4.67 -1.3 4.34 -3 4 C-2.67 2.68 -2.34 1.36 -2 0 C-4.97 0 -7.94 0 -11 0 C-11 -0.33 -11 -0.66 -11 -1 C-3.62686567 -2.41791045 -3.62686567 -2.41791045 0 0 Z " fill="#1192C9" transform="translate(224,25)"/>
<path d="M0 0 C0.7666577 2.81746704 1.21809591 5.53288109 1.5 8.4375 C1.83647938 11.67411117 2.28225756 14.82142634 3 18 C-0.29633431 15.8024438 -0.49293995 15.44734268 -1.3125 11.8125 C-2.22199387 7.24284787 -1.65164287 4.31262304 0 0 Z " fill="#6ABBD7" transform="translate(128,25)"/>
<path d="M0 0 C6.75 2.75 6.75 2.75 9 5 C8.34 5 7.68 5 7 5 C7 5.66 7 6.32 7 7 C2.25 5.125 2.25 5.125 0 4 C0 2.68 0 1.36 0 0 Z " fill="#8DB1D6" transform="translate(51,4)"/>
<path d="M0 0 C0.33 0 0.66 0 1 0 C1 3.96 1 7.92 1 12 C3.97 12.495 3.97 12.495 7 13 C6.34 13.66 5.68 14.32 5 15 C3.68 15 2.36 15 1 15 C1 14.34 1 13.68 1 13 C0.34 13 -0.32 13 -1 13 C-0.67 8.71 -0.34 4.42 0 0 Z " fill="#5BB7DD" transform="translate(190,27)"/>
<path d="M0 0 C0.36923077 4.55384615 0.36923077 4.55384615 -1.5 6.8125 C-1.995 7.204375 -2.49 7.59625 -3 8 C-3.33 7.01 -3.66 6.02 -4 5 C-4.99 5.495 -4.99 5.495 -6 6 C-5.6875 4.125 -5.6875 4.125 -5 2 C-2 0 -2 0 0 0 Z " fill="#0A94CB" transform="translate(221,33)"/>
<path d="M0 0 C1.32 0.33 2.64 0.66 4 1 C4 5.29 4 9.58 4 14 C2.68 14.33 1.36 14.66 0 15 C0.33 14.484375 0.66 13.96875 1 13.4375 C2.64926094 9.41742646 2.64926094 5.58257354 1 1.5625 C0.67 1.046875 0.34 0.53125 0 0 Z " fill="#63BFDE" transform="translate(197,25)"/>
<path d="M0 0 C0.79921875 0.01804687 1.5984375 0.03609375 2.421875 0.0546875 C3.02515625 0.07789062 3.6284375 0.10109375 4.25 0.125 C4.25 0.455 4.25 0.785 4.25 1.125 C-0.205 1.62 -0.205 1.62 -4.75 2.125 C-4.75 2.785 -4.75 3.445 -4.75 4.125 C-6.73 4.785 -8.71 5.445 -10.75 6.125 C-9.79632051 3.74080127 -9.17010128 2.39032713 -6.96875 1 C-4.47106748 0.01499844 -2.6723318 -0.07859799 0 0 Z " fill="#70BEDC" transform="translate(139.75,18.875)"/>
<path d="M0 0 C2.64 0 5.28 0 8 0 C8 0.99 8 1.98 8 3 C5.36 3 2.72 3 0 3 C0 2.01 0 1.02 0 0 Z " fill="#1B92BE" transform="translate(40,26)"/>
<path d="M0 0 C6.75 -0.125 6.75 -0.125 9 1 C8.67 1.66 8.34 2.32 8 3 C7.34 2.67 6.68 2.34 6 2 C6.33 2.99 6.66 3.98 7 5 C6.01 4.67 5.02 4.34 4 4 C4 3.34 4 2.68 4 2 C2.35 2 0.7 2 -1 2 C-0.67 1.34 -0.34 0.68 0 0 Z " fill="#0596CF" transform="translate(194,21)"/>
<path d="M0 0 C0.33 2.31 0.66 4.62 1 7 C-0.32 7 -1.64 7 -3 7 C-3 5.02 -3 3.04 -3 1 C-1 0 -1 0 0 0 Z " fill="#0297D3" transform="translate(132,31)"/>
<path d="M0 0 C2.31 0.66 4.62 1.32 7 2 C6.67 3.32 6.34 4.64 6 6 C1.125 3.375 1.125 3.375 0 0 Z " fill="#7CA6C8" transform="translate(29,46)"/>
<path d="M0 0 C2.125 0.9375 2.125 0.9375 4 2 C0.25 5 0.25 5 -2 5 C-2 3.68 -2 2.36 -2 1 C-1.34 0.67 -0.68 0.34 0 0 Z " fill="#92B6D9" transform="translate(53,47)"/>
<path d="M0 0 C3.49234244 -0.09978121 6.59437148 0.22157062 10 1 C10 1.66 10 2.32 10 3 C6.7 2.67 3.4 2.34 0 2 C0 1.34 0 0.68 0 0 Z " fill="#6CBFDD" transform="translate(184,19)"/>
<path d="M0 0 C3.9492568 0.55105909 7.34920174 1.38935371 11 3 C11 3.33 11 3.66 11 4 C3.49230769 3.38461538 3.49230769 3.38461538 1 1.4375 C0.67 0.963125 0.34 0.48875 0 0 Z " fill="#7ECAE0" transform="translate(131,43)"/>
<path d="M0 0 C1.32 0.66 2.64 1.32 4 2 C2.35 3.32 0.7 4.64 -1 6 C-1.625 4.125 -1.625 4.125 -2 2 C-1.34 1.34 -0.68 0.68 0 0 Z " fill="#88ADD5" transform="translate(28,8)"/>
<path d="M0 0 C2.6875 1.4375 2.6875 1.4375 5 3 C4.01 3.66 3.02 4.32 2 5 C-1.875 3.25 -1.875 3.25 -3 1 C-2.01 0.67 -1.02 0.34 0 0 Z " fill="#94BCDD" transform="translate(28,43)"/>
<path d="M0 0 C0 0.99 0 1.98 0 3 C-1.8125 4.75 -1.8125 4.75 -4 6 C-4.99 5.67 -5.98 5.34 -7 5 C-6.34 5 -5.68 5 -5 5 C-5 4.34 -5 3.68 -5 3 C-2.5 1.375 -2.5 1.375 0 0 Z " fill="#65BBD6" transform="translate(205,40)"/>
<path d="M0 0 C-0.33 0.66 -0.66 1.32 -1 2 C-3.97 1.67 -6.94 1.34 -10 1 C-10 0.67 -10 0.34 -10 0 C-6.33694766 -0.74926071 -3.57644848 -1.2380014 0 0 Z " fill="#75C6E0" transform="translate(148,40)"/>
</svg>
